<?xml version="1.0" encoding="iso-8859-1"?>
<!-- Generator: Adobe Illustrator 19.0.0, SVG Export Plug-In . SVG Version: 6.00 Build 0)  -->
<svg version="1.1" id="Layer_1" xmlns="http://www.w3.org/2000/svg" xmlns:xlink="http://www.w3.org/1999/xlink" x="0px" y="0px"
	 viewBox="0 0 390.737 390.737" style="enable-background:new 0 0 390.737 390.737;" xml:space="preserve">
<g>
	<g>
		<path style="fill:#333E48;" d="M176.769,372.137C79.142,372.137,0,292.995,0,195.368S79.142,18.6,176.769,18.6h37.199
			c97.627,0,176.769,79.142,176.769,176.769s-79.142,176.769-176.769,176.769h-37.199V372.137z"/>
	</g>
	<circle style="fill:#3E4A57;" cx="176.769" cy="195.368" r="176.769"/>
	<circle style="fill:#FFFFFF;" cx="176.769" cy="195.368" r="129.873"/>
	<g>
		<circle style="fill:#A4A9AD;" cx="65.035" cy="195.368" r="10"/>
		<circle style="fill:#A4A9AD;" cx="176.769" cy="83.635" r="9.999"/>
		<circle style="fill:#A4A9AD;" cx="288.502" cy="195.368" r="9.999"/>
		<circle style="fill:#A4A9AD;" cx="176.769" cy="307.102" r="9.999"/>
	</g>
	<path style="fill:#FF8189;" d="M112.785,263.511c-1.064,0-2.129-0.406-2.941-1.218c-1.624-1.624-1.624-4.258,0-5.882l63.983-63.983
		c1.625-1.625,4.258-1.625,5.883,0c1.624,1.623,1.624,4.258,0,5.881l-63.983,63.984
		C114.914,263.104,113.851,263.511,112.785,263.511z"/>
	<path style="fill:#333E48;" d="M188.324,195.368c0,6.382-5.174,11.556-11.556,11.556s-11.556-5.174-11.556-11.556v-87.669
		c0-6.382,5.174-11.556,11.556-11.556s11.556,5.174,11.556,11.556V195.368z"/>
	<path style="fill:#333E48;" d="M176.769,206.924c-6.382,0-11.556-5.173-11.556-11.556s5.174-11.556,11.556-11.556h59.939
		c6.382,0,11.556,5.173,11.556,11.556s-5.174,11.556-11.556,11.556H176.769z"/>
</g>
<g>
</g>
<g>
</g>
<g>
</g>
<g>
</g>
<g>
</g>
<g>
</g>
<g>
</g>
<g>
</g>
<g>
</g>
<g>
</g>
<g>
</g>
<g>
</g>
<g>
</g>
<g>
</g>
<g>
</g>
</svg>
