<?xml version="1.0" encoding="utf-8"?>
<!-- Svg Vector Icons : http://www.onlinewebfonts.com/icon -->
<!DOCTYPE svg PUBLIC "-//W3C//DTD SVG 1.1//EN" "http://www.w3.org/Graphics/SVG/1.1/DTD/svg11.dtd">
<svg version="1.1" xmlns="http://www.w3.org/2000/svg" xmlns:xlink="http://www.w3.org/1999/xlink" x="0px" y="0px" viewBox="0 0 1000 1000" enable-background="new 0 0 1000 1000" xml:space="preserve">
<metadata> Svg Vector Icons : http://www.onlinewebfonts.com/icon </metadata>
<g><g transform="translate(0.000000,511.000000) scale(0.100000,-0.100000)"><path d="M3340,4510.3c-621.4-412.3-691.1-452.1-736.9-434.2c-121.5,45.8-247-33.9-272.8-173.3c-10-57.8-37.8-83.7-173.3-173.3c-191.2-125.5-215.1-147.4-201.1-185.2c19.9-47.8,69.7-33.9,197.1,49.8c65.7,43.8,125.5,79.7,135.4,79.7c8,0,13.9-69.7,13.9-153.3c2-85.6,21.9-400.3,47.8-699c37.8-466,49.8-549.7,83.6-595.5c97.6-131.4,167.3-163.3,744.8-346.5c308.7-97.6,569.6-181.2,577.5-187.2c10-6,12-71.7,6-147.4l-11.9-135.4l101.6-13.9c272.8-35.8,609.4-155.3,820.5-292.8l121.5-77.7l57.7,39.8c133.4,95.6,402.3,191.2,742.8,266.9c49.8,12,53.8,19.9,53.8,121.5v109.5h95.6c51.8,2,292.8,10,537.7,17.9c420.2,17.9,450.1,21.9,551.7,69.7c125.5,63.7,149.4,93.6,247,346.5c65.7,173.3,79.7,193.2,127.4,199.2l53.8,6V1525V849.9l-161.3-53.8c-87.6-29.9-155.4-57.8-151.4-63.7c6-4,75.7-29.9,157.3-55.8l145.4-45.8l6-185.2l6-183.2l-165.3,13.9c-91.6,8-171.3,19.9-177.2,27.9c-6,8-27.9,185.2-47.8,396.3c-19.9,209.1-41.8,392.3-49.8,404.3c-19.9,31.9-201.1,75.7-426.2,101.6c-254.9,29.9-575.5,12-778.7-39.8c-157.3-41.8-478-187.2-561.6-254.9l-43.8-35.8l59.7-418.2c31.9-229,57.7-424.2,57.7-432.2c0-10-147.4-15.9-328.6-15.9c-328.6,0-328.6,0-328.6,45.8c2,23.9,17.9,227,37.8,452.1c23.9,284.8,29.9,416.2,15.9,434.1c-31.9,41.8-227,133.4-380.4,181.2c-394.3,121.5-832.5,151.4-1230.8,81.7c-334.6-57.8-404.3-81.7-408.3-139.4c-4-27.9-23.9-312.7-45.8-635.3c-21.9-322.6-43.8-589.5-45.8-593.5c-4-4-123.5,8-264.9,23.9C2009.6-124,1810.4-110,1710.9-110h-185.2v948c0,894.2,2,948,35.8,934c460.1-175.2,916.1-308.7,1063.5-308.7c183.2,0,201.1,77.7,51.8,227c-509.8,507.8-2473.4,1314.4-2573,1055.5c-45.8-119.5,334.6-414.2,910.1-707l272.8-139.4V897.7v-999.7L1023.8-128c-145.4-11.9-314.7-33.9-374.4-47.8c-101.6-21.9-109.5-29.9-115.5-83.7C520-438.6,390.5-2515.8,390.5-2581.5v-75.7l157.3-49.8c135.4-41.8,378.4-93.6,665.2-141.4l73.7-11.9v-796.6v-796.6l115.5,6l113.5,6l6,784.7l4,782.7l61.8-12c33.8-6,239-11.9,456-11.9h394.3l53.8-173.3c358.5-1151.1,1585.3-1864.1,2804.1-1631c981.8,189.2,1764.5,959.9,1935.8,1907.9c23.9,131.4,25.9,65.7,33.9-750.8l6-896.2h149.4h149.4l6,1515.5l4,1517.5l165.3,21.9c89.6,13.9,193.2,27.9,229,35.9l63.7,10v233c0,129.5-6,450.1-13.9,713l-11.9,478L7910.5,115c-55.8,17.9-153.3,45.8-215.1,63.7l-115.5,31.9v171.3v171.3l75.7-13.9c39.8-6,159.3-21.9,262.9-33.9c103.6-11.9,209.1-25.9,235-29.9l43.8-8V-1992v-2459.5h159.3h159.3V-1994V463.5l155.3,13.9c382.4,33.9,790.6,113.5,1091.3,217.1l137.4,45.8l-169.3,51.8c-352.5,107.5-711,177.3-1039.6,203.1l-175.3,13.9v107.5v107.5h-159.3h-159.3v-107.5v-109.5l-83.6-10c-205.1-25.9-428.2-55.8-478-65.7l-55.8-10v637.3v637.3l175.3,11.9c581.5,37.8,993.8,111.5,1127.2,197.2c223,147.4-300.7,298.7-1127.2,326.6c-252.9,8-374.4,19.9-374.4,33.8c2,12,21.9,83.6,45.8,157.3l45.8,135.4l47.8-51.8c53.8-55.8,115.5-65.7,133.4-17.9c8,19.9-17.9,59.7-71.7,115.5c-75.7,77.7-81.6,89.6-81.6,195.2c0,91.6-10,123.5-47.8,169.3c-43.8,49.8-61.7,55.8-177.2,57.7h-129.4l-629.3,613.4c-619.4,603.4-699,667.2-699,559.6c0-25.9,221.1-254.9,631.3-653.2l633.3-615.4l-55.8-91.6c-29.9-51.8-115.5-213.1-193.2-360.5l-139.4-268.9l-219.1-35.8c-334.6-55.8-507.8-121.5-507.8-195.2c0-39.8,51.8-89.6,117.5-109.5c43.8-13.9,45.8-15.9,11.9-35.8c-23.9-12-346.5-19.9-914.1-17.9l-878.3,2l-635.3,199.2c-348.5,109.5-637.3,203.1-641.3,205.1c-2,4-55.8,260.9-117.5,571.5c-61.7,310.7-125.5,593.5-141.4,625.3c-17.9,31.9-27.9,59.7-23.9,63.7c4,2,296.7,195.2,653.2,428.2c356.5,233,665.2,440.1,685.1,460c31.9,29.9,33.9,41.8,11.9,65.7c-13.9,17.9-35.8,31.9-47.8,29.9C4035,4966.3,3716.3,4761.2,3340,4510.3z M5130.3-478.5c850.4-129.5,1521.5-782.7,1653-1609.2c37.8-229,15.9-577.5-49.8-800.6c-113.5-386.4-336.6-722.9-647.2-971.9c-565.6-454.1-1332.3-567.6-2011.4-300.7c-585.5,231-1029.6,732.9-1179,1334.3c-61.7,248.9-61.7,643.3,0,892.2c137.4,551.7,509.8,1011.7,1029.6,1270.6c209.1,105.5,386.4,157.3,687.1,203.1C4730-444.6,4955.1-450.6,5130.3-478.5z M7259.3-1757c-2-185.2-6-312.7-12-284.8c-17.9,121.5-75.7,338.6-119.5,454.1c-23.9,67.7-45.8,127.5-45.8,133.4c0,8,69.7,23.9,135.4,27.9l43.8,2L7259.3-1757z"/><path d="M4608.5,4239.4c-248.9-59.7-432.1-207.1-547.7-442.1c-71.7-143.4-75.7-161.3-73.7-330.6c2-282.8,97.6-476,314.7-641.3c322.6-245,786.7-219.1,1087.4,63.7c394.3,368.4,294.7,1033.6-191.2,1278.6C4994.9,4269.3,4819.6,4291.2,4608.5,4239.4z"/></g></g>
</svg>