<?xml version="1.0" encoding="UTF-8"?>
<svg xmlns="http://www.w3.org/2000/svg" xmlns:xlink="http://www.w3.org/1999/xlink" viewBox="0 0 144 144" width="144px" height="144px">
<g id="surface252343850">
<path style=" stroke:none;fill-rule:nonzero;fill:rgb(100%,83.92157%,0%);fill-opacity:1;" d="M 18 126 L 18 18 L 126 18 L 126 126 Z M 18 126 "/>
<path style=" stroke:none;fill-rule:nonzero;fill:rgb(0%,0%,0.392157%);fill-opacity:1;" d="M 88.613281 98.839844 C 90.691406 102.214844 92.945312 105.445312 97.726562 105.445312 C 101.738281 105.445312 103.84375 103.449219 103.84375 100.6875 C 103.84375 97.386719 101.667969 96.214844 97.25 94.289062 L 94.828125 93.257812 C 87.84375 90.292969 83.195312 86.578125 83.195312 78.734375 C 83.195312 71.503906 88.730469 66.003906 97.378906 66.003906 C 103.539062 66.003906 107.964844 68.136719 111.15625 73.722656 L 103.613281 78.542969 C 101.953125 75.578125 100.160156 74.410156 97.378906 74.410156 C 94.542969 74.410156 92.746094 76.203125 92.746094 78.542969 C 92.746094 81.433594 94.546875 82.605469 98.699219 84.394531 L 101.121094 85.429688 C 109.355469 88.933594 114 92.515625 114 100.570312 C 114 109.246094 107.148438 114 97.949219 114 C 88.953125 114 83.84375 109.484375 81 103.894531 Z M 53.855469 99.085938 C 55.375 101.804688 57.679688 103.894531 61 103.894531 C 64.171875 103.894531 66 102.640625 66 97.765625 L 66 66 L 76 66 L 76 99.304688 C 76 109.402344 70.140625 114 61.585938 114 C 53.851562 114 48.273438 108.761719 46 103.894531 Z M 53.855469 99.085938 "/>
</g>
</svg>
