<?xml version="1.0" encoding="iso-8859-1"?>
<!-- Generator: Adobe Illustrator 18.1.1, SVG Export Plug-In . SVG Version: 6.00 Build 0)  -->
<svg version="1.1" id="Capa_1" xmlns="http://www.w3.org/2000/svg" xmlns:xlink="http://www.w3.org/1999/xlink" x="0px" y="0px"
	 viewBox="0 0 27.116 27.116" style="enable-background:new 0 0 27.116 27.116;" xml:space="preserve">
<g>
	<path style="fill:#010002;" d="M25.239,15.195l-0.163-0.551l-0.17-0.537l-0.205-0.499l-0.189-0.496l-0.197-0.486l-0.177-0.477
		l-0.149-0.499l-0.118-0.498l0.026-0.229l0.105-0.218l0.108-0.229l0.027-0.214l-0.093-0.438l-0.11-0.436l-0.118-0.442L23.679,8.52
		l-0.145-0.434l-0.15-0.425l-0.163-0.435l-0.171-0.42l-0.189-0.397l-0.205-0.407l-0.197-0.4l0.615-0.379L22.86,4.849l-0.244-0.347
		l-0.241-0.353l-0.244-0.336l-0.229-0.28l-0.242-0.27l-0.242-0.245l-0.251-0.241l-0.253-0.229l0.563-0.215l-0.291-0.196
		l-0.281-0.205l-0.297-0.176l-0.293-0.17l-0.307-0.165l-0.311-0.15l-0.32-0.145l-0.34-0.136l-0.333-0.132l-0.337-0.124l-0.403-0.131
		l-0.401-0.104l-0.407-0.11l-0.398-0.093l-0.419-0.085l-0.414-0.066l-0.417-0.053l-0.421-0.039l-0.412-0.026l-0.42-0.014L13.842,0
		l-0.434,0.013l-0.419,0.014l-0.414,0.026l-0.419,0.039l-0.411,0.053l-0.432,0.066l-0.428,0.085l-0.431,0.081l-0.432,0.086
		L9.595,0.589L9.164,0.706L8.732,0.844L8.317,0.99L7.911,1.153L7.512,1.345L7.105,1.526L6.719,1.729l-0.38,0.229l-0.361,0.23
		L5.63,2.444l-0.34,0.27L4.984,2.982L4.688,3.264L4.407,3.56L4.138,3.865L3.882,4.206L3.626,4.528l-0.23,0.347l-0.214,0.36
		l-0.21,0.366l-0.19,0.372L2.618,6.354L2.46,6.731l-0.136,0.39L2.204,7.51L2.105,7.915L2.027,8.304l-0.119,0.83L1.864,9.951
		l0.02,0.818l0.079,0.807l0.131,0.81l0.215,0.791l0.268,0.769l2.022,3.279c3.426,3.529,3.281,7.057,3.281,7.057l0.009,0.696
		l0.027,2.138h11.682l0.048-0.219v-0.683l0.028-0.687l0.052-1.533l0.079-0.778l0.038-0.185l0.074-0.148l0.077-0.133l0.104-0.111
		l0.138-0.077l0.158-0.054l0.176-0.058l0.188-0.028l0.244-0.024l0.229-0.013h0.056l0.229,0.024l0.215,0.013l0.23,0.028l0.208,0.017
		l0.244,0.029l0.23,0.024l-0.575,0.013l0.254,0.028l0.257,0.013l0.281,0.014l0.164-0.014l0.17-0.041l0.175-0.066l0.166-0.082
		l0.159-0.105l0.138-0.125l0.114-0.132l0.099-0.138l0.065-0.295l-0.035-0.319l-0.062-0.319V20.64l0.047-0.138l0.065-0.115
		l0.065-0.126l0.08-0.106l0.083-0.111l0.065-0.118l0.054-0.124l0.012-0.13l-0.012-0.151l-0.026-0.132l-0.041-0.138l-0.066-0.13
		l-0.097-0.124l-0.105-0.119l-0.125-0.09l-0.143-0.1l0.156-0.078l0.15-0.092l0.153-0.111l0.103-0.105l0.093-0.124l0.057-0.132
		l0.029-0.123l-0.029-0.132l-0.149-0.474l-0.093-0.429l-0.058-0.401v-0.394l0.229-0.091l0.204-0.093l0.177-0.099l0.143-0.104
		l0.113-0.117l0.066-0.124l0.039-0.13L25.239,15.195z M12.825,16.049c-0.765,0-1.304-0.592-1.304-1.356
		c0-0.8,0.556-1.355,1.32-1.355c0.782,0,1.303,0.556,1.321,1.355C14.162,15.457,13.641,16.049,12.825,16.049z M14.753,9.551
		c-0.695,0.799-0.956,1.511-0.921,2.345v0.383h-1.893l-0.018-0.453c-0.087-0.92,0.226-1.876,1.042-2.85
		c0.66-0.799,1.111-1.405,1.111-2.084c0-0.729-0.468-1.218-1.441-1.234c-0.608,0-1.303,0.191-1.737,0.521l-0.522-1.53
		c0.625-0.399,1.616-0.711,2.728-0.711c2.155,0,3.145,1.25,3.145,2.641C16.247,7.845,15.501,8.699,14.753,9.551z"/>
</g>
<g>
</g>
<g>
</g>
<g>
</g>
<g>
</g>
<g>
</g>
<g>
</g>
<g>
</g>
<g>
</g>
<g>
</g>
<g>
</g>
<g>
</g>
<g>
</g>
<g>
</g>
<g>
</g>
<g>
</g>
</svg>
