<?xml version="1.0" encoding="iso-8859-1"?>
<!-- Generator: Adobe Illustrator 19.0.0, SVG Export Plug-In . SVG Version: 6.00 Build 0)  -->
<svg version="1.1" id="Layer_1" xmlns="http://www.w3.org/2000/svg" xmlns:xlink="http://www.w3.org/1999/xlink" x="0px" y="0px"
	 viewBox="0 0 300.95 300.95" style="enable-background:new 0 0 300.95 300.95;" xml:space="preserve">
<g>
	<g>
		<g>
			<path d="M53.43,268.645c11.635,0,21.125-9.425,21.125-21.125c0-11.635-9.49-21.125-21.125-21.125s-21.125,9.49-21.125,21.125
				S41.795,268.645,53.43,268.645z M53.43,236.145c6.24,0,11.375,5.135,11.375,11.375s-5.135,11.375-11.375,11.375
				s-11.375-5.135-11.375-11.375S47.19,236.145,53.43,236.145z"/>
			<path d="M247.52,74.555c11.7,0,21.125-9.49,21.125-21.125s-9.49-21.125-21.125-21.125s-21.125,9.49-21.125,21.125
				S235.885,74.555,247.52,74.555z M247.52,42.055c6.305,0,11.375,5.07,11.375,11.375c0,6.24-5.135,11.375-11.375,11.375
				s-11.375-5.135-11.375-11.375S241.28,42.055,247.52,42.055z"/>
			<path d="M33.8,73.06c0.975,0.975,2.21,1.43,3.445,1.43c1.235,0,2.47-0.455,3.445-1.43l12.74-12.74l12.74,12.74
				c0.975,0.975,2.21,1.43,3.445,1.43c1.235,0,2.47-0.455,3.445-1.43c1.885-1.885,1.885-5.005,0-6.89L60.32,53.43l12.74-12.74
				c1.885-1.885,1.885-5.005,0-6.89c-1.885-1.885-5.005-1.885-6.89,0L53.43,46.54L40.69,33.8c-1.885-1.885-5.005-1.885-6.89,0
				c-1.885,1.885-1.885,5.005,0,6.89l12.74,12.74L33.8,66.17C31.915,68.055,31.915,71.175,33.8,73.06z"/>
			<path d="M296.075,0H199.03h-97.11H4.875C2.21,0,0,2.21,0,4.875v97.045v97.045v97.11c0,2.665,2.21,4.875,4.875,4.875h97.045
				h97.045h97.11c2.665,0,4.875-2.21,4.875-4.875V199.03v-97.11V4.875C300.95,2.21,298.74,0,296.075,0z M97.045,291.2H9.75v-87.295
				h87.295V291.2z M97.045,194.09H9.75v-87.295h87.295V194.09z M97.045,97.045H9.75V9.75h87.295V97.045z M194.09,291.2h-87.295
				v-87.295h87.295V291.2z M194.09,194.155h-87.295v-87.36h87.295V194.155z M194.09,97.045h-87.295V9.75h87.295V97.045z
				 M291.2,291.2h-87.295v-87.295H291.2V291.2z M291.2,194.155h-87.295v-87.36H291.2V194.155z M291.2,97.045h-87.295V9.75H291.2
				V97.045z"/>
			<path d="M150.475,171.6c11.635,0,21.125-9.49,21.125-21.125s-9.49-21.125-21.125-21.125s-21.125,9.49-21.125,21.125
				S138.84,171.6,150.475,171.6z M150.475,139.1c6.24,0,11.375,5.135,11.375,11.375s-5.135,11.375-11.375,11.375
				s-11.375-5.135-11.375-11.375S144.235,139.1,150.475,139.1z"/>
			<path d="M240.63,247.52l-12.74,12.74c-1.885,1.885-1.885,5.005,0,6.89c0.975,0.975,2.21,1.43,3.445,1.43s2.47-0.455,3.445-1.43
				l12.74-12.74l12.74,12.74c0.975,0.975,2.21,1.43,3.445,1.43s2.47-0.455,3.445-1.43c1.885-1.885,1.885-5.005,0-6.89l-12.74-12.74
				l12.74-12.74c1.885-1.885,1.885-5.005,0-6.89s-5.005-1.885-6.89,0l-12.74,12.74l-12.74-12.74c-1.885-1.885-5.005-1.885-6.89,0
				s-1.885,5.005,0,6.89L240.63,247.52z"/>
		</g>
	</g>
</g>
<g>
</g>
<g>
</g>
<g>
</g>
<g>
</g>
<g>
</g>
<g>
</g>
<g>
</g>
<g>
</g>
<g>
</g>
<g>
</g>
<g>
</g>
<g>
</g>
<g>
</g>
<g>
</g>
<g>
</g>
</svg>
